<?xml version="1.0" standalone="no"?>
<!DOCTYPE svg PUBLIC "-//W3C//DTD SVG 20010904//EN"
 "http://www.w3.org/TR/2001/REC-SVG-20010904/DTD/svg10.dtd">
<svg version="1.0" xmlns="http://www.w3.org/2000/svg"
 width="96.000000pt" height="79.000000pt" viewBox="0 0 96.000000 79.000000"
 preserveAspectRatio="xMidYMid meet">

<g transform="translate(0.000000,79.000000) scale(0.100000,-0.100000)"
fill="#000000" stroke="none">
<path fill="#fff" d="M607 775 c-87 -32 -137 -100 -137 -187 l0 -45 -51 8 c-114 18 -227
74 -307 152 -47 46 -55 44 -66 -23 -8 -49 16 -125 50 -161 23 -24 25 -29 10
-29 -9 0 -26 5 -38 11 -28 15 -31 7 -18 -40 13 -50 63 -108 110 -130 l35 -16
-42 -3 -43 -3 14 -27 c22 -43 61 -73 117 -92 l52 -18 -60 -31 c-63 -31 -164
-53 -205 -45 -22 5 -22 5 -4 -10 29 -23 115 -54 203 -72 71 -14 84 -14 166 2
126 24 215 70 297 152 101 101 169 253 170 379 0 38 5 48 45 84 49 46 57 63
23 50 -13 -4 -36 -11 -53 -15 -27 -6 -28 -5 -12 8 21 16 67 76 67 87 0 4 -27
-4 -61 -18 l-61 -25 -23 22 c-21 19 -103 51 -129 49 -6 0 -28 -7 -49 -14z"/>
</g>
</svg>
