<?xml version="1.0" standalone="no"?>
<!DOCTYPE svg PUBLIC "-//W3C//DTD SVG 20010904//EN"
 "http://www.w3.org/TR/2001/REC-SVG-20010904/DTD/svg10.dtd">
<svg version="1.0" xmlns="http://www.w3.org/2000/svg"
 width="96.000000pt" height="65.000000pt" viewBox="0 0 96.000000 65.000000"
 preserveAspectRatio="xMidYMid meet">

<g transform="translate(0.000000,65.000000) scale(0.100000,-0.100000)"
fill="#000000" stroke="none">
<path fill="#fff" d="M65 636 c-17 -12 -1 -25 189 -150 114 -75 216 -136 226 -136 11 0
113 61 227 136 191 125 206 137 188 150 -28 20 -802 21 -830 0z"/>
<path fill="#fff" d="M0 334 c0 -124 4 -224 9 -222 12 4 279 252 280 259 1 7 -271 189
-282 189 -4 0 -7 -102 -7 -226z"/>
<path fill="#fff" d="M810 470 c-74 -49 -136 -93 -136 -97 -2 -8 192 -189 257 -242 l29
-24 0 227 c0 124 -3 226 -7 226 -5 0 -69 -41 -143 -90z"/>
<path fill="#fff" d="M217 208 c-72 -68 -145 -135 -160 -149 -26 -24 -27 -26 -11 -40 26
-22 846 -21 868 1 14 14 -2 31 -145 164 l-161 148 -48 -26 c-60 -32 -104 -33
-155 -1 -22 13 -43 25 -48 25 -4 0 -67 -55 -140 -122z"/>
</g>
</svg>
